<svg xmlns="http://www.w3.org/2000/svg" viewBox="0 0 1280 735" font-family="Arial, Helvetica, sans-serif" font-size="13" role="img" aria-label="Sensor node NODE-04 (LoRa) - power path">
<rect width="100%" height="100%" fill="#ffffff"/>
<text x="20" y="28" font-size="18" text-anchor="start" font-weight="bold" fill="#1b5e20">Sensor node NODE-04 (LoRa) - power path</text>
<text x="20" y="47" font-size="11.5" text-anchor="start" fill="#5f6b60">Power path. Typical pinout of the common modules - check yours. Module rails come from the same catalogue as the GPIO diagram.</text>
<rect x="30" y="110" width="180" height="180" rx="8" fill="#ffffff" stroke="#b8860b" stroke-width="2"/>
<text x="120" y="136" font-size="14" text-anchor="middle" font-weight="bold" fill="#b8860b">Solar panel</text>
<text x="120" y="158" font-size="11" text-anchor="middle" fill="#1b1b1b">size = design input:</text>
<text x="120" y="174" font-size="11" text-anchor="middle" fill="#1b1b1b">project estimate ~6 W for</text>
<text x="120" y="190" font-size="11" text-anchor="middle" fill="#1b1b1b">an always-on gas node</text>
<text x="120" y="206" font-size="11" text-anchor="middle" fill="#1b1b1b">(MEASURE, then size it)</text>
<text x="200" y="234" font-size="14" text-anchor="end" font-weight="bold" fill="#1b1b1b">+</text>
<text x="200" y="272" font-size="14" text-anchor="end" font-weight="bold" fill="#1b1b1b">−</text>
<rect x="300" y="110" width="220" height="200" rx="8" fill="#ffffff" stroke="#00838f" stroke-width="2"/>
<text x="410" y="136" font-size="14" text-anchor="middle" font-weight="bold" fill="#00838f">TP4056 charger</text>
<text x="410" y="154" font-size="11" text-anchor="middle" fill="#1b1b1b">+ DW01 / FS8205 protection</text>
<text x="410" y="170" font-size="11" text-anchor="middle" fill="#1b1b1b">4.2 V float, 1 A (R_PROG 1.2k)</text>
<text x="308" y="234" font-size="13" text-anchor="start" fill="#1b1b1b">IN+</text>
<text x="308" y="272" font-size="13" text-anchor="start" fill="#1b1b1b">IN−</text>
<text x="512" y="234" font-size="13" text-anchor="end" fill="#1b1b1b">OUT+</text>
<text x="512" y="272" font-size="13" text-anchor="end" fill="#1b1b1b">OUT−</text>
<text x="370" y="302" font-size="13" text-anchor="middle" fill="#1b1b1b">B+</text>
<text x="460" y="302" font-size="13" text-anchor="middle" fill="#1b1b1b">B−</text>
<polyline points="370,310 370,400" fill="none" stroke="#00838f" stroke-width="2.6" stroke-linejoin="round"/>
<polyline points="460,310 460,400" fill="none" stroke="#78909c" stroke-width="2.6" stroke-linejoin="round"/>
<rect x="320" y="400" width="200" height="80" rx="8" fill="#e0f2f1" stroke="#00838f" stroke-width="2"/>
<text x="370" y="418" font-size="14" text-anchor="middle" font-weight="bold" fill="#1b1b1b">+</text>
<text x="460" y="418" font-size="14" text-anchor="middle" font-weight="bold" fill="#1b1b1b">−</text>
<text x="420" y="444" font-size="14" text-anchor="middle" font-weight="bold" fill="#1b1b1b">18650 Li-ion cell</text>
<text x="420" y="464" font-size="11" text-anchor="middle" fill="#1b1b1b">3.0–4.2 V (config.h)</text>
<text x="420" y="500" font-size="11" text-anchor="middle" fill="#78909c">B− goes ONLY to the cell −, never to GND:</text>
<text x="420" y="515" font-size="11" text-anchor="middle" fill="#78909c">the protection switch sits between B− and OUT−</text>
<polyline points="370,355 240,355" fill="none" stroke="#6d4c41" stroke-width="2.6" stroke-linejoin="round"/>
<circle cx="370" cy="355" r="4.5" fill="#00838f"/>
<rect x="40" y="320" width="200" height="120" rx="8" fill="#fff8e1" stroke="#6d4c41" stroke-width="2"/>
<text x="140" y="342" font-size="13" text-anchor="middle" font-weight="bold" fill="#6d4c41">Battery sense</text>
<text x="52" y="362" font-size="11" text-anchor="start" fill="#1b1b1b">100k / 100k divider (top / bottom)</text>
<text x="52" y="378" font-size="11" text-anchor="start" fill="#1b1b1b">top: from B+ (cell +)</text>
<text x="52" y="394" font-size="11" text-anchor="start" fill="#1b1b1b">mid: GPIO35 (BATTERY_PIN)</text>
<text x="52" y="410" font-size="11" text-anchor="start" fill="#1b1b1b">BATTERY_DIVIDER_RATIO 2</text>
<text x="52" y="426" font-size="11" text-anchor="start" fill="#1b1b1b">bottom: to GND</text>
<rect x="610" y="110" width="210" height="200" rx="8" fill="#ffffff" stroke="#e65100" stroke-width="2"/>
<text x="715" y="136" font-size="14" text-anchor="middle" font-weight="bold" fill="#e65100">MT3608 boost</text>
<text x="715" y="154" font-size="11" text-anchor="middle" fill="#1b1b1b">set VOUT+ to 5.0 V with the</text>
<text x="715" y="170" font-size="11" text-anchor="middle" fill="#1b1b1b">trimmer BEFORE fitting the ESP32</text>
<text x="618" y="234" font-size="13" text-anchor="start" fill="#1b1b1b">VIN+</text>
<text x="618" y="272" font-size="13" text-anchor="start" fill="#1b1b1b">VIN−</text>
<text x="812" y="234" font-size="13" text-anchor="end" fill="#1b1b1b">VOUT+</text>
<text x="812" y="272" font-size="13" text-anchor="end" fill="#1b1b1b">VOUT−</text>
<rect x="930" y="110" width="180" height="200" rx="8" fill="#e8f5e9" stroke="#1b5e20" stroke-width="2"/>
<text x="1020" y="136" font-size="14" text-anchor="middle" font-weight="bold" fill="#1b5e20">ESP32 DevKit</text>
<text x="1020" y="154" font-size="11" text-anchor="middle" fill="#1b1b1b">board LDO: 5 V → 3.3 V</text>
<text x="1020" y="170" font-size="11" text-anchor="middle" fill="#1b1b1b">(often AMS1117-3.3)</text>
<text x="938" y="234" font-size="13" text-anchor="start" fill="#1b1b1b">5V / VIN</text>
<text x="938" y="272" font-size="13" text-anchor="start" fill="#1b1b1b">GND</text>
<text x="1102" y="234" font-size="13" text-anchor="end" fill="#1b1b1b">3V3</text>
<polyline points="210,230 300,230" fill="none" stroke="#b8860b" stroke-width="2.6" stroke-linejoin="round"/>
<polyline points="520,230 610,230" fill="none" stroke="#00838f" stroke-width="2.6" stroke-linejoin="round"/>
<polyline points="820,230 930,230" fill="none" stroke="#e65100" stroke-width="2.6" stroke-linejoin="round"/>
<polyline points="1110,230 1190,230 1190,380" fill="none" stroke="#c62828" stroke-width="2.6" stroke-linejoin="round"/>
<text x="255" y="222" font-size="11.5" text-anchor="middle" font-weight="bold" fill="#b8860b">PV+</text>
<text x="565" y="222" font-size="11.5" text-anchor="middle" font-weight="bold" fill="#00838f">BAT+</text>
<text x="850" y="222" font-size="11.5" text-anchor="middle" font-weight="bold" fill="#e65100">5.0 V</text>
<text x="1150" y="222" font-size="11.5" text-anchor="middle" font-weight="bold" fill="#c62828">3.3 V</text>
<polyline points="210,268 300,268" fill="none" stroke="#263238" stroke-width="2.6" stroke-linejoin="round"/>
<polyline points="520,268 610,268" fill="none" stroke="#263238" stroke-width="2.6" stroke-linejoin="round"/>
<polyline points="820,268 930,268" fill="none" stroke="#263238" stroke-width="2.6" stroke-linejoin="round"/>
<path d="M890,230 L890,260 A8,8 0 0 1 890,276 L890,380" fill="none" stroke="#e65100" stroke-width="2.6"/>
<circle cx="890" cy="230" r="4.5" fill="#e65100"/>
<rect x="620" y="380" width="290" height="124" rx="8" fill="#ffffff" stroke="#e65100" stroke-width="2"/>
<text x="632" y="402" font-size="13" text-anchor="start" font-weight="bold" fill="#e65100">5 V rail (MT3608 VOUT+) → VCC of</text>
<text x="636" y="422" font-size="12" text-anchor="start" fill="#1b1b1b">• HC-SR04 water level</text>
<text x="636" y="440" font-size="12" text-anchor="start" fill="#1b1b1b">• MQ135 gas</text>
<text x="636" y="458" font-size="12" text-anchor="start" fill="#1b1b1b">• PMS5003 particulate</text>
<text x="636" y="476" font-size="12" text-anchor="start" fill="#1b1b1b">• pH board (PH-4502C)</text>
<text x="636" y="494" font-size="12" text-anchor="start" fill="#1b1b1b">• Turbidity (SEN0189)</text>
<rect x="950" y="380" width="300" height="124" rx="8" fill="#ffffff" stroke="#c62828" stroke-width="2"/>
<text x="962" y="402" font-size="13" text-anchor="start" font-weight="bold" fill="#c62828">3.3 V rail (ESP32 3V3 pin) → VCC of</text>
<text x="966" y="422" font-size="12" text-anchor="start" fill="#1b1b1b">• SX1278 LoRa (Ra-02)</text>
<text x="966" y="440" font-size="12" text-anchor="start" fill="#1b1b1b">• DHT22 temp/humidity</text>
<text x="966" y="458" font-size="12" text-anchor="start" fill="#1b1b1b">• IR flame sensor</text>
<text x="966" y="476" font-size="12" text-anchor="start" fill="#1b1b1b">• Capacitive soil moisture v1.2</text>
<text x="966" y="494" font-size="12" text-anchor="start" fill="#1b1b1b">• MPU6050 tilt/vibration</text>
<rect x="170" y="535" width="300" height="52" rx="8" fill="#ffffff" stroke="#6a1b9a" stroke-width="2"/>
<text x="182" y="557" font-size="13" text-anchor="start" font-weight="bold" fill="#6a1b9a">Own supply (not a board rail)</text>
<text x="186" y="577" font-size="12" text-anchor="start" fill="#1b1b1b">• Village siren + strobe (12 V)</text>
<polyline points="40,627 1250,627" fill="none" stroke="#263238" stroke-width="2.6" stroke-linejoin="round"/>
<polyline points="565,268 565,627" fill="none" stroke="#263238" stroke-width="2.6" stroke-linejoin="round"/>
<circle cx="565" cy="627" r="4.5" fill="#263238"/>
<polyline points="765,504 765,627" fill="none" stroke="#263238" stroke-width="2.6" stroke-linejoin="round"/>
<circle cx="765" cy="627" r="4.5" fill="#263238"/>
<polyline points="1100,504 1100,627" fill="none" stroke="#263238" stroke-width="2.6" stroke-linejoin="round"/>
<circle cx="1100" cy="627" r="4.5" fill="#263238"/>
<polyline points="140,440 140,627" fill="none" stroke="#263238" stroke-width="2.6" stroke-linejoin="round"/>
<circle cx="140" cy="627" r="4.5" fill="#263238"/>
<polyline points="320,587 320,627" fill="none" stroke="#263238" stroke-width="2.6" stroke-linejoin="round"/>
<circle cx="320" cy="627" r="4.5" fill="#263238"/>
<circle cx="565" cy="268" r="4.5" fill="#263238"/>
<text x="40" y="647" font-size="12" text-anchor="start" font-weight="bold" fill="#263238">common GND: TP4056 IN− / OUT−, MT3608 VIN− / VOUT−, ESP32 GND, every module, the divider bottom, own supplies (−)</text>
<line x1="40" y1="675" x2="66" y2="675" stroke="#b8860b" stroke-width="3"/>
<text x="72" y="679" font-size="11.5" text-anchor="start" fill="#37474f">panel</text>
<line x1="116.0" y1="675" x2="142.0" y2="675" stroke="#00838f" stroke-width="3"/>
<text x="148.0" y="679" font-size="11.5" text-anchor="start" fill="#37474f">cell + (B+ = OUT+)</text>
<line x1="275.2" y1="675" x2="301.2" y2="675" stroke="#e65100" stroke-width="3"/>
<text x="307.2" y="679" font-size="11.5" text-anchor="start" fill="#37474f">5 V</text>
<line x1="338.4" y1="675" x2="364.4" y2="675" stroke="#c62828" stroke-width="3"/>
<text x="370.4" y="679" font-size="11.5" text-anchor="start" fill="#37474f">3.3 V</text>
<line x1="414.4" y1="675" x2="440.4" y2="675" stroke="#6a1b9a" stroke-width="3"/>
<text x="446.4" y="679" font-size="11.5" text-anchor="start" fill="#37474f">own supply</text>
<line x1="522.4" y1="675" x2="548.4" y2="675" stroke="#263238" stroke-width="3"/>
<text x="554.4" y="679" font-size="11.5" text-anchor="start" fill="#37474f">GND</text>
<circle cx="591.6" cy="675" r="4.5" fill="#263238"/>
<text x="601.6" y="679" font-size="11.5" text-anchor="start" fill="#37474f">= wires joined (crossing wires without a dot are not)</text>
<text x="40" y="701" font-size="11.5" text-anchor="start" fill="#5f6b60">ESP32 DevKit: power it from ONE source only (Espressif) - disconnect the MT3608 before plugging in USB.</text>
<text x="40" y="718" font-size="11.5" text-anchor="start" fill="#5f6b60">Currents and panel size are typical/estimated values - MEASURE your build (see wiring.html, power budget).</text>
</svg>